<?xml version="1.0" encoding="UTF-8"?>
<svg version="1.1" viewBox="0 0 2048 2048" width="4675" height="4675" xmlns="http://www.w3.org/2000/svg">
<path transform="translate(0)" d="m0 0h2048v2048h-2048z" fill="none"/>
<path transform="translate(1020,802)" d="m0 0h19l15 4 12 7 11 11 8 15 3 14v120l-1 158 5-5 13-11 16-8 11-3 7-1h20l16 4 13 7 7 6 9 12 2 6 14-8 13-4 6-1h20l15 3 14 7 10 9 7 11 5 13 9-2 12-3h19l12 3 13 7 10 10 8 14 4 12 2 10 1 11v269l-2 21-5 23-7 20-8 16-8 14-10 14-9 10-7 8-8 8-15 11-16 8-15 5-19 4-19 2h-86l-26-3-28-6-30-10-21-10-14-8-18-10-11-8-8-8-20-15-27-18-13-10-15-13-9-7-7-8-10-11-9-11-11-12-9-11-12-14-9-11-14-17-9-11-13-16-11-14-13-16-8-10-11-11-16-11-22-13-14-10-9-9-5-10-1-4v-15l4-14 7-13 7-9 8-9 11-8 11-4 5-1h21l18 3 24 7 21 9 16 8 17 11 10 8 12 11 11 12 9 10 10 10 7 8 3 2v-99l1-49 3-87 4-129 3-101 3-16 6-14 8-11 10-10 11-7 12-5z" fill="#606E7E"/>
<path transform="translate(996,391)" d="m0 0h56l31 3 36 6 32 8 36 12 28 12 30 15 17 10 27 18 16 12 11 9 14 12 15 14 14 14 7 8 13 15 10 13 13 18 11 17 11 19 12 23 9 19 11 29 9 28 8 34 5 31 3 34v48l-3 33-6 36-6 26-11 35-13 32-14 29-14 24-16 24-5 6-4 2h-8l-5-3-7-7-7-8-11-12-7-9-1-9 5-9 12-19 13-24 12-27 10-28 7-25 6-30 4-36v-50l-3-30-5-28-6-24-11-33-13-30-12-23-13-21-12-17-11-14-11-13-11-12-19-19-11-9-13-11-18-13-21-13-16-9-22-11-27-11-28-9-30-7-25-4-20-2-23-1-36 1-27 3-27 5-28 7-29 10-23 10-16 8-17 9-22 14-19 14-11 9-14 12-17 16-18 20-11 14-14 19-13 21-10 18-13 27-11 29-7 24-6 26-4 26-2 21v51l3 29 5 28 7 28 11 32 12 27 13 25 12 19 5 8 1 8-3 6-13 14-7 8-11 12-4 2h-8l-5-3-9-12-14-22-14-25-12-25-13-33-9-29-6-24-6-33-3-27-1-15v-47l3-34 5-32 7-29 8-27 10-27 11-24 12-24 15-25 13-19 9-12 11-14 13-15 14-15 14-14 8-7 15-13 17-13 18-13 21-13 18-10 21-11 31-13 36-12 27-7 26-5 33-4z" fill="#606E7E"/>
<path transform="translate(1015,572)" d="m0 0h18l25 2 24 4 26 7 22 8 27 13 21 13 16 12 13 11 12 11 7 7 9 11 10 12 14 21 9 16 12 25 10 30 5 21 3 20 1 10v44l-3 24-6 27-9 27-9 20-4 6-5 4h-10l-8-7-13-14-7-8-9-10-2-6 1-7 8-24 5-23 2-19v-24l-2-19-5-24-7-21-12-25-11-18-13-16-9-10-10-10-14-11-18-12-21-11-25-9-21-5-12-2-11-1h-30l-18 2-23 5-18 6-18 8-15 8-16 11-11 9-10 9-10 10-11 14-10 14-11 20-10 25-6 22-3 19-1 10v27l3 24 5 21 8 23-1 8-12 14-13 14-7 8-6 5h-10l-7-6-9-19-9-25-7-28-3-20-1-10v-45l4-29 7-28 8-23 14-29 10-17 12-17 9-11 12-14 12-12 11-9 12-10 21-14 18-10 19-9 25-9 28-7 19-3z" fill="#82C0AB"/>
<path transform="translate(1007,699)" d="m0 0h34l21 4 20 7 19 10 11 8 13 11 7 7 11 14 9 15 8 17 6 21 2 12 1 21-2 21-5 21-6 15-9 17-8 11-11 13-7 7-17 13-14 8h-2l-1-119-4-16-7-13-10-10-12-7-15-4h-19l-14 3-12 5-11 7-11 11-8 13-5 14-2 12-3 95-1 6-9-5-12-9-12-11-10-11-12-18-10-21-6-21-2-12-1-22 2-21 5-20 6-15 9-17 10-14 14-15 13-11 18-11 15-7 15-5z" fill="#AAD4C8"/>
</svg>
